<svg version="1.1" id="Layer_1" xmlns="http://www.w3.org/2000/svg" xmlns:xlink="http://www.w3.org/1999/xlink" x="0px" y="0px"
	 width="100%" viewBox="0 0 496 496" enable-background="new 0 0 496 496" xml:space="preserve">
<path fill="#000000" opacity="1.000000" stroke="none" 
	d="
M230.662567,207.714417 
	C241.546585,220.550156 252.108231,233.143738 262.669891,245.737335 
	C263.022552,245.633865 263.375244,245.530380 263.727905,245.426910 
	C263.727905,237.020752 263.724823,228.614609 263.729523,220.208450 
	C263.731293,217.043823 263.802338,213.878311 263.747253,210.714844 
	C263.699738,207.987762 264.973816,206.761322 267.668640,206.781448 
	C272.498566,206.817520 277.329926,206.846664 282.158844,206.766251 
	C285.078674,206.717621 286.353088,207.903976 286.345581,210.918152 
	C286.287292,234.403244 286.288116,257.888580 286.343903,281.373688 
	C286.351196,284.442902 284.932953,285.117157 282.097717,285.421661 
	C272.360229,286.467438 264.762451,284.502838 258.867981,275.351410 
	C253.049057,266.317261 245.267899,258.546753 238.344025,250.224823 
	C237.407471,249.099167 236.450241,247.990723 235.414474,246.770508 
	C233.602020,248.835815 234.253372,250.738785 234.238907,252.463440 
	C234.160690,261.790314 234.097000,271.119293 234.220535,280.444946 
	C234.268112,284.036835 233.028152,285.599640 229.275604,285.397369 
	C224.791183,285.155670 220.281693,285.236023 215.788055,285.359100 
	C212.775330,285.441559 211.639328,284.143860 211.645370,281.200989 
	C211.693665,257.715851 211.673553,234.230606 211.675003,210.745392 
	C211.675125,208.780304 211.959198,206.854813 214.473907,206.898239 
	C219.764435,206.989594 225.097824,206.062714 230.662567,207.714417 
z"/>
<path fill="#000000" opacity="1.000000" stroke="none" 
	d="
M158.848389,270.366699 
	C151.714386,270.372253 145.053665,270.495026 138.400040,270.330536 
	C135.412674,270.256653 134.014847,271.461517 132.908691,274.180023 
	C128.351273,285.380615 128.259537,285.380615 115.913559,285.317108 
	C112.785347,285.301025 109.606529,285.790375 106.603310,284.871277 
	C105.594879,283.399841 106.400909,282.193176 106.917038,281.023407 
	C117.123711,257.891174 127.412277,234.794754 137.513779,211.616776 
	C139.056396,208.077255 141.190063,207.167938 144.973068,206.578308 
	C157.861099,204.569565 164.420898,209.502426 168.956100,221.954758 
	C176.055069,241.446564 185.470520,260.093781 193.865067,279.116241 
	C194.642120,280.877075 195.965225,282.572083 195.035843,285.274536 
	C188.412125,285.274536 181.628143,285.278381 174.844162,285.271942 
	C173.046844,285.270233 172.237717,284.085510 171.658249,282.596436 
	C170.934296,280.736023 169.958023,278.948456 169.450211,277.034088 
	C168.040329,271.718964 164.940323,269.188690 158.848389,270.366699 
M158.659943,250.300598 
	C156.199265,244.216431 153.738586,238.132263 151.277893,232.048080 
	C150.866379,232.039215 150.454849,232.030365 150.043335,232.021500 
	C147.305527,238.740875 144.567719,245.460251 141.508499,252.968475 
	C147.374802,252.968475 151.997696,252.993576 156.619965,252.951614 
	C157.844711,252.940491 159.000595,252.649811 158.659943,250.300598 
z"/>
<path fill="#000000" opacity="1.000000" stroke="none" 
	d="
M374.610046,238.076965 
	C374.610596,225.322495 374.609680,225.411270 362.234558,225.282623 
	C348.729279,225.142258 350.850891,227.144897 350.675751,213.618164 
	C350.587646,206.814529 350.680664,206.795059 357.596832,206.792465 
	C376.574890,206.785339 395.554565,206.932526 414.529846,206.703674 
	C419.417725,206.644714 421.407867,207.948212 421.262146,213.131439 
	C420.858002,227.508270 422.618805,225.129395 408.947174,225.280563 
	C397.294769,225.409424 397.297668,225.303497 397.295074,236.792313 
	C397.291809,251.275558 397.178223,265.759949 397.341980,280.241272 
	C397.385895,284.126648 396.172882,285.659943 392.189758,285.406097 
	C387.712891,285.120667 383.200043,285.211060 378.710968,285.369324 
	C375.496399,285.482635 374.351379,284.319946 374.398010,281.011292 
	C374.597321,266.864044 374.560883,252.713470 374.610046,238.076965 
z"/>
<path fill="#000000" opacity="1.000000" stroke="none" 
	d="
M323.962402,206.782623 
	C334.202850,206.828720 333.329865,205.999527 333.341278,215.624649 
	C333.366516,236.909286 333.239075,258.194916 333.426239,279.477936 
	C333.465454,283.940918 332.292694,285.857513 327.569092,285.424591 
	C323.445923,285.046722 319.258087,285.221283 315.105988,285.362122 
	C311.998505,285.467529 310.619690,284.419128 310.632385,281.095154 
	C310.721405,257.815399 310.713928,234.535065 310.639099,211.255219 
	C310.628906,208.085068 311.763397,206.642334 314.991547,206.776443 
	C317.813263,206.893646 320.644196,206.789505 323.962402,206.782623 
z"/>
<path fill="#000000" opacity="1.000000" stroke="none" 
	d="
M225.675232,304.380798 
	C225.647385,300.821503 227.791855,300.677368 230.115936,300.859711 
	C232.506088,301.047272 233.047333,302.763397 233.070084,304.732147 
	C233.118088,308.886749 233.117798,313.042694 233.066925,317.197266 
	C233.048859,318.673706 233.129288,320.462463 231.383636,321.000458 
	C229.473740,321.589050 227.470596,321.664459 225.744690,320.150360 
	C224.047638,318.661560 223.184875,316.299255 220.640030,315.275360 
	C220.488220,316.046417 220.265182,316.650208 220.268448,317.252777 
	C220.283890,320.107910 219.135025,321.433136 216.056137,321.343018 
	C212.479156,321.238342 212.688766,318.900391 212.679199,316.534515 
	C212.664413,312.877777 212.618668,309.219879 212.691910,305.564636 
	C212.726791,303.822968 212.223419,301.674469 214.675934,301.027344 
	C216.741547,300.482300 218.613129,300.930176 220.110306,302.603241 
	C221.637619,304.309998 223.217255,305.969879 224.754471,307.629242 
	C226.089828,306.777710 225.427872,305.654816 225.675232,304.380798 
z"/>
<path fill="#000000" opacity="1.000000" stroke="none" 
	d="
M386.003632,306.320526 
	C388.923553,308.519135 387.940002,305.715668 388.013184,304.958221 
	C388.274109,302.257416 389.194733,300.606476 392.313995,300.805573 
	C395.553619,301.012360 395.343567,303.253937 395.356232,305.425659 
	C395.378479,309.239655 395.419220,313.055328 395.327667,316.867310 
	C395.290527,318.412872 395.900757,320.470032 393.708923,321.062256 
	C391.760376,321.588745 389.741547,321.554138 388.201202,319.818542 
	C386.700867,318.128082 385.185760,316.450775 383.253326,314.294861 
	C382.951965,316.451019 382.862183,317.898529 382.529572,319.287903 
	C382.008270,321.465393 380.181641,321.259613 378.518768,321.253815 
	C376.693481,321.247437 375.749908,320.286469 375.723267,318.499969 
	C375.658875,314.189850 375.584808,309.878296 375.636047,305.568756 
	C375.656586,303.843842 375.135956,301.673065 377.579193,301.020813 
	C379.634888,300.471985 381.523224,300.882080 382.946930,302.660095 
	C383.879211,303.824402 384.856476,304.952667 386.003632,306.320526 
z"/>
<path fill="#000000" opacity="1.000000" stroke="none" 
	d="
M202.938614,306.418182 
	C204.899063,312.319763 203.740891,316.839996 199.819794,319.640137 
	C195.466431,322.748993 188.947205,322.586273 184.963486,319.269379 
	C181.442764,316.337982 180.207474,311.341248 181.951752,307.086945 
	C185.275909,298.979309 196.801376,298.410797 202.938614,306.418182 
M193.174728,315.472046 
	C193.875610,315.067932 194.740509,314.808807 195.248489,314.234161 
	C197.261688,311.956879 196.978790,309.635925 194.662048,307.865326 
	C193.079361,306.655762 190.867325,306.721863 189.909622,308.544495 
	C188.353073,311.506744 188.595718,314.304352 193.174728,315.472046 
z"/>
<path fill="#000000" opacity="1.000000" stroke="none" 
	d="
M270.132507,300.850769 
	C273.925171,300.471130 274.888580,302.351379 274.935303,305.327332 
	C274.974152,307.804596 274.133698,310.282471 274.935577,312.754639 
	C275.295227,313.863434 275.582886,315.160339 277.010498,315.224915 
	C278.641083,315.298706 279.432587,314.080048 279.535797,312.685181 
	C279.731537,310.039490 279.761963,307.374725 279.718628,304.720184 
	C279.674530,302.019379 280.839844,300.772095 283.581360,300.775970 
	C286.413269,300.779999 287.382751,302.240723 287.311523,304.847473 
	C287.248047,307.171570 287.373718,309.501709 287.281799,311.823914 
	C287.036774,318.012756 283.655792,321.625336 277.880493,321.974823 
	C272.082123,322.325745 268.011017,319.183044 267.538666,313.028137 
	C267.225922,308.953400 264.656647,304.131927 270.132507,300.850769 
z"/>
<path fill="#000000" opacity="1.000000" stroke="none" 
	d="
M345.036255,317.995697 
	C347.174591,313.102386 349.243591,308.582764 351.163910,304.000824 
	C352.122437,301.713715 353.610718,300.719971 356.119720,300.746735 
	C358.629791,300.773590 360.173706,301.810577 361.033142,304.101227 
	C363.098877,309.607025 366.426086,314.648407 367.547455,320.807312 
	C364.737213,321.356018 362.382538,322.012024 360.220428,320.023651 
	C357.326599,317.362335 354.544891,317.531677 351.498291,320.047089 
	C348.396179,322.608307 345.632416,321.753082 345.036255,317.995697 
z"/>
<path fill="#000000" opacity="1.000000" stroke="none" 
	d="
M255.466583,320.719177 
	C251.728973,322.284943 248.290588,322.130310 244.840103,321.238892 
	C243.007278,320.765411 241.111435,320.215302 241.771545,317.663696 
	C242.365280,315.368622 243.779434,314.291809 246.231918,315.136597 
	C247.486603,315.568726 248.755173,315.970367 250.540955,315.312225 
	C248.451370,314.465576 246.635498,313.844940 244.925201,313.008392 
	C242.658310,311.899628 241.367569,310.069183 241.450729,307.438293 
	C241.531891,304.870239 242.776779,303.073456 245.019913,301.865234 
	C247.982391,300.269531 251.169006,300.424286 254.275909,300.908081 
	C256.089966,301.190521 258.537201,301.558624 257.852692,304.544067 
	C257.307831,306.920441 255.757462,307.783386 253.392715,307.269623 
	C252.441055,307.062836 251.478683,306.905518 249.411972,306.517334 
	C252.710739,309.368713 257.099579,308.482483 258.617676,312.041199 
	C260.163788,315.665466 259.192963,318.503693 255.466583,320.719177 
z"/>
<path fill="#000000" opacity="1.000000" stroke="none" 
	d="
M164.118439,321.957825 
	C155.805084,319.965363 152.357101,315.289459 153.822998,308.504120 
	C155.035385,302.892212 160.971298,299.515625 167.603973,300.851501 
	C170.035034,301.341156 173.257126,302.188660 172.816544,305.139099 
	C172.341629,308.319336 169.622375,308.745972 166.577301,307.420624 
	C164.893555,306.687805 162.791794,306.897278 161.766525,308.871765 
	C160.883377,310.572510 160.903839,312.483582 162.131546,314.066650 
	C163.255905,315.516479 164.983429,316.205261 166.567886,315.191437 
	C169.579712,313.264282 172.234009,314.149963 172.919128,317.034790 
	C173.664185,320.171967 170.209030,320.584808 167.939758,321.347351 
	C166.849564,321.713684 165.659622,321.783203 164.118439,321.957825 
z"/>
<path fill="#000000" opacity="1.000000" stroke="none" 
	d="
M319.507477,302.243713 
	C324.974792,299.603577 330.478302,301.116333 335.876434,300.939606 
	C337.153534,300.897797 338.014465,301.785065 338.134918,303.158722 
	C338.254028,304.517151 338.339111,306.379272 336.852386,306.570312 
	C330.495148,307.387238 332.762909,312.172638 332.333313,315.749146 
	C332.061737,318.010223 333.278656,321.084808 329.209137,321.293579 
	C326.434357,321.435913 324.650482,320.712494 324.775909,317.497345 
	C324.860260,315.335602 324.734802,313.166504 324.750061,311.001038 
	C324.764252,308.988495 324.352142,307.429810 321.932892,307.069946 
	C319.366180,306.688141 318.825623,304.902924 319.507477,302.243713 
z"/>
<path fill="#000000" opacity="1.000000" stroke="none" 
	d="
M416.410645,312.356506 
	C416.386963,314.633575 416.354004,316.463013 416.345825,318.292603 
	C416.334869,320.747162 414.827332,321.297455 412.725922,321.308167 
	C410.602936,321.319031 409.115875,320.669556 409.027557,318.300079 
	C408.947052,316.140045 408.916504,313.976929 408.920898,311.815277 
	C408.925537,309.544617 408.819366,307.489777 405.874969,306.977020 
	C403.728790,306.603241 403.603516,304.840942 403.816345,303.073151 
	C404.057159,301.072937 405.601440,300.855164 407.135376,300.832947 
	C411.126587,300.775146 415.119110,300.782684 419.110901,300.803986 
	C420.741852,300.812683 422.094208,301.275848 422.215576,303.249390 
	C422.324768,305.024658 422.155334,306.801270 419.972107,307.029999 
	C416.836456,307.358521 416.240814,309.294769 416.410645,312.356506 
z"/>
<path fill="#000000" opacity="1.000000" stroke="none" 
	d="
M299.179260,321.229553 
	C296.985138,320.909058 296.669281,319.626404 296.661896,318.225983 
	C296.637299,313.562592 296.678925,308.898895 296.662476,304.235443 
	C296.654510,301.981567 297.712524,300.900513 299.978180,300.817749 
	C302.332916,300.731781 303.886169,301.515533 304.030334,304.081177 
	C304.105011,305.410614 304.202240,306.749023 304.129730,308.074646 
	C303.887787,312.499023 303.716431,316.726379 310.295471,315.762634 
	C311.835846,315.537018 312.696930,316.726227 312.729218,318.294250 
	C312.765106,320.035889 312.023376,321.235138 310.149628,321.265594 
	C306.653503,321.322449 303.155823,321.283051 299.179260,321.229553 
z"/>
</svg>